<svg xmlns="http://www.w3.org/2000/svg" viewBox="0 0 113.77 104.65"><defs><style>.cls-1{fill:#f2edee;}</style></defs><g id="Layer_2" data-name="Layer 2"><g id="Layer_1-2" data-name="Layer 1"><path class="cls-1" d="M79.46,31.68H73a2,2,0,0,0-2,2V34.9a.58.58,0,0,1-.93.46A38.65,38.65,0,0,0,9.42,76.84a.87.87,0,0,0,.78.62,13.21,13.21,0,0,1,11.71,17.6.84.84,0,0,0,.27,1,38.64,38.64,0,0,0,47.35,1,.87.87,0,0,1,1.39.7v4.87a2,2,0,0,0,2,2H83.1a2,2,0,0,0,2-2V37.35A5.67,5.67,0,0,0,79.46,31.68Zm-32.95,59A24.65,24.65,0,1,1,70.92,62.63a24.2,24.2,0,0,1,0,6.8A24.68,24.68,0,0,1,46.51,90.68Z"/><rect class="cls-1" x="92.84" y="31.68" width="14.21" height="72.97" rx="1.06"/><circle class="cls-1" cx="9.47" cy="90.64" r="9.47" transform="translate(-20.57 4.6) rotate(-13.28)"/><path class="cls-1" d="M110.86,20a7.19,7.19,0,0,1,0,.81,5.89,5.89,0,0,1-3.62,5.45v1.2H72.47v-.08a4.78,4.78,0,0,1,0-.66A5.87,5.87,0,0,1,73.08,24a7.61,7.61,0,0,1,2.6-14.77,7.54,7.54,0,0,1,2,.27c0-.25,0-.51,0-.77A8.69,8.69,0,0,1,94.27,5.07,8.68,8.68,0,0,1,108.61,9a5.91,5.91,0,0,1,2.25,11Z"/></g></g></svg>